<mxfile host="app.diagrams.net" modified="2024-03-05T10:06:40.124Z" agent="Mozilla/5.0 (Windows NT 10.0; Win64; x64) AppleWebKit/537.36 (KHTML, like Gecko) Chrome/122.0.0.0 Safari/537.36 Edg/122.0.0.0" etag="NJJt_XqO2K3vCQ2lXW5P" version="24.0.1" type="github">
  <diagram name="Page-1" id="QvO51yJk1GWOkrOGvweL">
    <mxGraphModel dx="786" dy="729" grid="1" gridSize="10" guides="1" tooltips="1" connect="1" arrows="1" fold="1" page="1" pageScale="1" pageWidth="827" pageHeight="1169" math="0" shadow="0">
      <root>
        <mxCell id="0" />
        <mxCell id="1" parent="0" />
        <mxCell id="JGydaM-a8dLFErdaDC5e-1" value="internaute" style="shape=umlActor;verticalLabelPosition=bottom;verticalAlign=top;html=1;outlineConnect=0;" parent="1" vertex="1">
          <mxGeometry x="170" y="110" width="30" height="60" as="geometry" />
        </mxCell>
        <mxCell id="JGydaM-a8dLFErdaDC5e-3" value="crÃ©er un produit" style="ellipse;whiteSpace=wrap;html=1;" parent="1" vertex="1">
          <mxGeometry x="310" y="330" width="240" height="50" as="geometry" />
        </mxCell>
        <mxCell id="JGydaM-a8dLFErdaDC5e-5" value="se connecter" style="ellipse;whiteSpace=wrap;html=1;" parent="1" vertex="1">
          <mxGeometry x="280" y="40" width="240" height="50" as="geometry" />
        </mxCell>
        <mxCell id="3bnzDcrKSzaWS_B3yUiv-20" style="edgeStyle=orthogonalEdgeStyle;rounded=0;orthogonalLoop=1;jettySize=auto;html=1;" edge="1" parent="1" source="JGydaM-a8dLFErdaDC5e-9">
          <mxGeometry relative="1" as="geometry">
            <mxPoint x="185" y="190" as="targetPoint" />
          </mxGeometry>
        </mxCell>
        <mxCell id="JGydaM-a8dLFErdaDC5e-9" value="admin" style="shape=umlActor;verticalLabelPosition=bottom;verticalAlign=top;html=1;outlineConnect=0;" parent="1" vertex="1">
          <mxGeometry x="170" y="380" width="30" height="60" as="geometry" />
        </mxCell>
        <mxCell id="3bnzDcrKSzaWS_B3yUiv-1" value="rechercher un produit" style="ellipse;whiteSpace=wrap;html=1;" vertex="1" parent="1">
          <mxGeometry x="280" y="120" width="240" height="50" as="geometry" />
        </mxCell>
        <mxCell id="3bnzDcrKSzaWS_B3yUiv-2" value="consulter un produit" style="ellipse;whiteSpace=wrap;html=1;" vertex="1" parent="1">
          <mxGeometry x="580" y="70" width="240" height="50" as="geometry" />
        </mxCell>
        <mxCell id="3bnzDcrKSzaWS_B3yUiv-3" value="supprimer un produit" style="ellipse;whiteSpace=wrap;html=1;" vertex="1" parent="1">
          <mxGeometry x="310" y="490" width="240" height="50" as="geometry" />
        </mxCell>
        <mxCell id="3bnzDcrKSzaWS_B3yUiv-4" value="modifier un produit" style="ellipse;whiteSpace=wrap;html=1;" vertex="1" parent="1">
          <mxGeometry x="300" y="410" width="240" height="50" as="geometry" />
        </mxCell>
        <mxCell id="3bnzDcrKSzaWS_B3yUiv-5" value="" style="endArrow=none;html=1;rounded=0;" edge="1" parent="1">
          <mxGeometry width="50" height="50" relative="1" as="geometry">
            <mxPoint x="220" y="430" as="sourcePoint" />
            <mxPoint x="310" y="360" as="targetPoint" />
          </mxGeometry>
        </mxCell>
        <mxCell id="3bnzDcrKSzaWS_B3yUiv-6" value="" style="endArrow=none;html=1;rounded=0;entryX=0;entryY=0.5;entryDx=0;entryDy=0;" edge="1" parent="1" target="3bnzDcrKSzaWS_B3yUiv-4">
          <mxGeometry width="50" height="50" relative="1" as="geometry">
            <mxPoint x="220" y="430" as="sourcePoint" />
            <mxPoint x="290" y="430" as="targetPoint" />
          </mxGeometry>
        </mxCell>
        <mxCell id="3bnzDcrKSzaWS_B3yUiv-8" value="" style="endArrow=none;html=1;rounded=0;entryX=0;entryY=0.5;entryDx=0;entryDy=0;" edge="1" parent="1">
          <mxGeometry width="50" height="50" relative="1" as="geometry">
            <mxPoint x="220" y="430" as="sourcePoint" />
            <mxPoint x="320" y="505" as="targetPoint" />
          </mxGeometry>
        </mxCell>
        <mxCell id="3bnzDcrKSzaWS_B3yUiv-9" value="consulter le prix" style="ellipse;whiteSpace=wrap;html=1;" vertex="1" parent="1">
          <mxGeometry x="580" y="150" width="240" height="50" as="geometry" />
        </mxCell>
        <mxCell id="3bnzDcrKSzaWS_B3yUiv-10" value="" style="endArrow=none;html=1;rounded=0;" edge="1" parent="1">
          <mxGeometry width="50" height="50" relative="1" as="geometry">
            <mxPoint x="220" y="130" as="sourcePoint" />
            <mxPoint x="280" y="140" as="targetPoint" />
          </mxGeometry>
        </mxCell>
        <mxCell id="3bnzDcrKSzaWS_B3yUiv-11" value="" style="endArrow=none;html=1;rounded=0;entryX=0.013;entryY=0.68;entryDx=0;entryDy=0;entryPerimeter=0;" edge="1" parent="1" target="JGydaM-a8dLFErdaDC5e-5">
          <mxGeometry width="50" height="50" relative="1" as="geometry">
            <mxPoint x="220" y="130" as="sourcePoint" />
            <mxPoint x="270" y="80" as="targetPoint" />
          </mxGeometry>
        </mxCell>
        <mxCell id="3bnzDcrKSzaWS_B3yUiv-13" value="" style="endArrow=block;dashed=1;endFill=0;endSize=12;html=1;rounded=0;exitX=0.95;exitY=0.32;exitDx=0;exitDy=0;exitPerimeter=0;" edge="1" parent="1" source="3bnzDcrKSzaWS_B3yUiv-1">
          <mxGeometry width="160" relative="1" as="geometry">
            <mxPoint x="420" y="94.5" as="sourcePoint" />
            <mxPoint x="580" y="94.5" as="targetPoint" />
          </mxGeometry>
        </mxCell>
        <mxCell id="3bnzDcrKSzaWS_B3yUiv-14" value="" style="endArrow=block;dashed=1;endFill=0;endSize=12;html=1;rounded=0;" edge="1" parent="1" source="3bnzDcrKSzaWS_B3yUiv-1">
          <mxGeometry width="160" relative="1" as="geometry">
            <mxPoint x="420" y="180" as="sourcePoint" />
            <mxPoint x="580" y="180" as="targetPoint" />
          </mxGeometry>
        </mxCell>
        <mxCell id="3bnzDcrKSzaWS_B3yUiv-15" value="acheter un produit" style="ellipse;whiteSpace=wrap;html=1;" vertex="1" parent="1">
          <mxGeometry x="860" y="100" width="240" height="50" as="geometry" />
        </mxCell>
        <mxCell id="3bnzDcrKSzaWS_B3yUiv-17" value="" style="endArrow=block;dashed=1;endFill=0;endSize=12;html=1;rounded=0;exitX=1;exitY=0.5;exitDx=0;exitDy=0;" edge="1" parent="1" source="3bnzDcrKSzaWS_B3yUiv-9">
          <mxGeometry width="160" relative="1" as="geometry">
            <mxPoint x="760" y="149" as="sourcePoint" />
            <mxPoint x="920" y="149" as="targetPoint" />
          </mxGeometry>
        </mxCell>
        <mxCell id="3bnzDcrKSzaWS_B3yUiv-18" value="" style="endArrow=block;dashed=1;endFill=0;endSize=12;html=1;rounded=0;exitX=1;exitY=0.5;exitDx=0;exitDy=0;entryX=0.067;entryY=0.14;entryDx=0;entryDy=0;entryPerimeter=0;" edge="1" parent="1" source="3bnzDcrKSzaWS_B3yUiv-2" target="3bnzDcrKSzaWS_B3yUiv-15">
          <mxGeometry width="160" relative="1" as="geometry">
            <mxPoint x="770" y="94.5" as="sourcePoint" />
            <mxPoint x="930" y="94.5" as="targetPoint" />
          </mxGeometry>
        </mxCell>
      </root>
    </mxGraphModel>
  </diagram>
</mxfile>
